<svg xmlns="http://www.w3.org/2000/svg" viewBox="0 0 960 540"><defs><style>.cls-1{fill:#05362f}.cls-2{fill:#032a23}.cls-3{fill:#043029}.cls-4{opacity:.8}.cls-6{fill:#073d35}.cls-7{fill:#084038}</style></defs><g id="visual"><path style="fill:#022720" d="M0 0h960v540H0z"/><g class="cls-4"><path class="cls-2" d="M960 540c-56.3-7.1-112.6-14.2-165.6-30.2s-102.7-40.9-151.8-72.9-97.6-71.1-116.2-121.8c-18.6-50.8-7.3-113.2-20.1-167.7C493.6 92.9 456.8 46.5 420 0h540v540Z"/><path class="cls-3" d="M960 432c-45.1-5.7-90.1-11.4-132.5-24.2-42.4-12.8-82.1-32.7-121.4-58.3-39.3-25.6-78.1-56.9-93-97.5s-5.8-90.5-16-134.1C586.9 74.4 557.4 37.2 528 0h432v432Z"/><path class="cls-1" d="M960 324c-33.8-4.3-67.6-8.5-99.4-18.1-31.8-9.6-61.6-24.6-91-43.8-29.5-19.2-58.6-42.6-69.8-73.1-11.1-30.4-4.3-67.9-12-100.6C680.2 55.8 658.1 27.9 636 0h324v324Z"/><path class="cls-6" d="M960 216c-22.5-2.8-45.1-5.7-66.3-12.1-21.2-6.4-41-16.4-60.7-29.2-19.6-12.7-39-28.4-46.5-48.7-7.4-20.3-2.9-45.3-8-67-5.1-21.8-19.8-40.4-34.5-59h216v216Z"/><path class="cls-7" d="M960 108c-11.3-1.4-22.5-2.8-33.1-6-10.6-3.2-20.6-8.2-30.4-14.6C886.7 81 877 73.2 873.3 63c-3.7-10.1-1.5-22.6-4-33.5C866.7 18.6 859.4 9.3 852 0h108v108Z"/></g><g class="cls-4"><path class="cls-2" d="M0 0c53.9 12.6 107.8 25.2 161 44.5s105.7 45.2 136.4 86.1c30.7 41 39.7 97 78 136.7 38.3 39.7 105.8 63.1 138.2 105.8 32.3 42.8 29.3 104.8 26.4 166.9H0V0Z"/><path class="cls-3" d="M0 108c43.1 10.1 86.2 20.2 128.8 35.6 42.6 15.4 84.6 36.1 109.1 68.9 24.6 32.8 31.8 77.6 62.4 109.3 30.6 31.8 84.7 50.5 110.6 84.7 25.8 34.2 23.5 83.8 21.1 133.5H0V108Z"/><path class="cls-1" d="M0 216c32.3 7.6 64.7 15.1 96.6 26.7 31.9 11.6 63.4 27.1 81.9 51.7 18.4 24.6 23.8 58.1 46.7 82 23 23.8 63.5 37.8 82.9 63.5 19.4 25.6 17.7 62.9 15.9 100.1H0V216Z"/><path class="cls-6" d="M0 324c21.6 5 43.1 10.1 64.4 17.8 21.3 7.7 42.3 18.1 54.6 34.5 12.3 16.3 15.8 38.7 31.2 54.6 15.3 15.9 42.3 25.3 55.2 42.4 13 17 11.8 41.9 10.6 66.7H0V324Z"/><path class="cls-7" d="M0 432c10.8 2.5 21.6 5 32.2 8.9 10.6 3.9 21.1 9 27.3 17.2 6.1 8.2 7.9 19.4 15.6 27.4 7.6 7.9 21.1 12.6 27.6 21.1 6.5 8.6 5.9 21 5.3 33.4H0V432Z"/></g></g></svg>