<?xml version="1.0" encoding="UTF-8"?>
<svg xmlns="http://www.w3.org/2000/svg" version="1.1" viewBox="0 0 320 768">
  <defs>
    <style>
      .cls-1 {
        fill: #05362f;
      }

      .cls-2 {
        fill: #032a23;
      }

      .cls-3 {
        fill: #043029;
      }

      .cls-4 {
        opacity: .8;
      }

      .cls-5 {
        fill: #022720;
      }

      .cls-6 {
        fill: #073d35;
      }

      .cls-7 {
        fill: #084038;
      }
    </style>
  </defs>
  <!-- Generator: Adobe Illustrator 28.7.1, SVG Export Plug-In . SVG Version: 1.2.0 Build 142)  -->
  <g>
    <g id="Capa_1">
      <rect class="cls-5" x="-110" y="-95.5" width="540" height="960"/>
      <g class="cls-4">
        <g>
          <path class="cls-2" d="M430-95.5c-7.1,56.3-14.2,112.6-30.2,165.6-16,53-40.9,102.7-72.9,151.8-32,49.1-71.1,97.6-121.8,116.2-50.8,18.6-113.2,7.3-167.7,20.1-54.5,12.7-100.9,49.5-147.4,86.3V-95.5H430Z"/>
          <path class="cls-3" d="M322-95.5c-5.7,45.1-11.4,90.1-24.2,132.5-12.8,42.4-32.7,82.1-58.3,121.4-25.6,39.3-56.9,78.1-97.5,93-40.6,14.9-90.5,5.8-134.1,16-43.5,10.2-80.7,39.7-117.9,69.1V-95.5h432Z"/>
        </g>
        <path class="cls-1" d="M214-95.5c-4.3,33.8-8.5,67.6-18.1,99.4-9.6,31.8-24.6,61.6-43.8,91-19.2,29.5-42.6,58.6-73.1,69.8-30.4,11.1-67.9,4.3-100.6,12-32.6,7.6-60.5,29.7-88.4,51.8V-95.5H214Z"/>
        <path class="cls-6" d="M106-95.5c-2.8,22.5-5.7,45.1-12.1,66.3-6.4,21.2-16.4,41-29.2,60.7-12.7,19.6-28.4,39-48.7,46.5-20.3,7.4-45.3,2.9-67,8-21.8,5.1-40.4,19.8-59,34.5V-95.5H106Z"/>
        <path class="cls-7" d="M-2-95.5c-1.4,11.3-2.8,22.5-6,33.1-3.2,10.6-8.2,20.6-14.6,30.4-6.4,9.8-14.2,19.5-24.4,23.2-10.1,3.7-22.6,1.5-33.5,4-10.9,2.6-20.2,9.9-29.5,17.3v-108H-2Z"/>
      </g>
      <g class="cls-4">
        <path class="cls-2" d="M-110,864.5c12.6-53.9,25.2-107.8,44.5-161s45.2-105.7,86.1-136.4c41-30.7,97-39.7,136.7-78,39.7-38.3,63.1-105.8,105.8-138.2,42.8-32.3,104.8-29.3,166.9-26.4v540H-110Z"/>
        <path class="cls-3" d="M-2,864.5c10.1-43.1,20.2-86.2,35.6-128.8,15.4-42.6,36.1-84.6,68.9-109.1,32.8-24.6,77.6-31.8,109.3-62.4,31.8-30.6,50.5-84.7,84.7-110.6,34.2-25.8,83.8-23.5,133.5-21.1v432H-2Z"/>
        <path class="cls-1" d="M106,864.5c7.6-32.3,15.1-64.7,26.7-96.6,11.6-31.9,27.1-63.4,51.7-81.9,24.6-18.4,58.1-23.8,82-46.7,23.8-23,37.8-63.5,63.5-82.9,25.6-19.4,62.9-17.7,100.1-15.9v324H106Z"/>
        <path class="cls-6" d="M214,864.5c5-21.6,10.1-43.1,17.8-64.4,7.7-21.3,18.1-42.3,34.5-54.6,16.3-12.3,38.7-15.8,54.6-31.2,15.9-15.3,25.3-42.3,42.4-55.2,17-13,41.9-11.8,66.7-10.6v216h-216Z"/>
        <path class="cls-7" d="M322,864.5c2.5-10.8,5-21.6,8.9-32.2,3.9-10.6,9-21.1,17.2-27.3,8.2-6.1,19.4-7.9,27.4-15.6,7.9-7.6,12.6-21.1,21.1-27.6,8.6-6.5,21-5.9,33.4-5.3v108h-108Z"/>
      </g>
    </g>
  </g>
</svg>